<svg width="160" height="36" viewBox="0 0 160 36" fill="none" xmlns="http://www.w3.org/2000/svg">
<path d="M159.19 11.7014L158.723 17.1711H156.464C152.854 17.1711 150.985 20.0215 150.985 22.7692V35.121H144.597V11.7014H150.647L150.777 14.6289C152.049 12.6259 154.283 11.7014 157.009 11.7014H159.19ZM114.865 35.121H108.477V22.7435C108.477 20.1499 108.243 16.8886 104.556 16.8886C100.998 16.8886 99.596 19.4309 99.596 22.384V35.1467H93.2081V11.7014H99.1286L99.2584 14.7059C100.531 12.7029 102.894 11.1365 106.399 11.1365C112.839 11.1365 114.891 15.6817 114.891 20.4324V35.121H114.865ZM90.4037 29.6513L89.9622 34.9926C88.4302 35.4035 87.0539 35.5575 85.418 35.5575C79.3936 35.5575 77.6538 32.8355 77.6538 27.3401V5.1275H84.0417V11.7014H90.4037L89.9622 17.1711H84.0417V26.8265C84.0417 29.035 84.6649 30.2162 86.95 30.2162C87.9368 30.2162 89.0534 30.0878 90.4037 29.6513ZM75.5505 11.7014L75.0571 17.1711H73.3173C69.7079 17.1711 67.9162 20.0215 67.9162 22.7692V35.121H61.5283V11.7014H67.5786L67.7084 14.6289C68.9808 12.6259 71.214 11.7014 73.9405 11.7014H75.5505ZM32.6529 32.5274C28.3164 34.8128 23.9799 36.1481 18.2672 35.9941C7.64665 35.6859 0.0123291 29.1634 0.0123291 18.1469C0.0123291 7.18185 7.75051 0.197067 18.2931 0.0173111C23.6424 -0.0597267 28.4203 1.2756 32.1596 4.53688L27.6672 9.03076C25.3562 7.07913 21.9545 5.94924 17.8777 6.12899C11.2301 6.43715 7.25714 11.2135 7.15327 17.7617C7.07537 24.8749 11.4638 29.754 18.3451 29.9337C21.591 30.0108 23.902 29.5742 25.9015 28.7011V21.4339H18.7346L19.228 15.4763H32.6529V32.5274ZM141.741 25.6196H124.213C124.706 28.6241 127.095 30.4217 130.055 30.4987C132.938 30.5757 134.548 29.7026 136.651 27.5969L140.832 30.7555C137.871 34.3763 134.314 35.6859 130.263 35.6859C123.122 35.6859 117.799 30.7555 117.799 23.4112C117.799 16.0669 123.122 11.1365 130.003 11.1365C137.612 11.1365 141.767 15.6817 141.767 23.7707V25.6196H141.741ZM135.327 20.7405C135.119 17.7874 132.886 15.9128 129.796 16.0412C126.68 16.1696 124.628 18.1469 124.187 20.7405H135.327ZM57.5034 19.7647V35.0953H51.8685L51.7387 32.7842C49.9989 34.9155 47.1945 35.6602 44.3121 35.6602C39.9497 35.6602 35.8469 33.5289 35.769 28.5984C35.6391 20.8176 44.6237 20.2783 50.2586 20.2783H51.3752V19.9702C51.3752 17.4022 49.6613 16.0155 46.4155 16.0155C44.0784 16.0155 41.7933 16.94 40.1055 18.5064L36.4181 14.8086C39.7679 12.1123 43.2475 11.1108 46.9608 11.1108C54.2575 11.1108 57.5034 14.4748 57.5034 19.7647ZM51.3492 24.9006H50.4663C47.4282 24.9006 42.1309 25.0547 42.1309 28.1876C42.1569 32.6044 51.3492 31.192 51.3492 25.8764V24.9006ZM154.205 32.399C154.205 30.9096 155.347 29.7797 156.801 29.7797C158.23 29.7797 159.372 30.9096 159.372 32.399C159.372 33.914 158.23 35.0439 156.801 35.0439C155.347 35.0183 154.205 33.914 154.205 32.399ZM156.801 35.5575C158.541 35.5575 160.021 34.2222 160.021 32.399C160.021 30.6014 158.541 29.2661 156.801 29.2661C155.062 29.2661 153.556 30.6014 153.556 32.399C153.556 34.2222 155.036 35.5575 156.801 35.5575ZM156.126 32.6301H156.775L157.736 34.1965H158.359L157.321 32.6044C157.866 32.5274 158.282 32.2449 158.282 31.6029C158.282 30.8839 157.84 30.5757 156.983 30.5757H155.581V34.2222H156.126V32.6301ZM156.126 32.1679V31.038H156.879C157.269 31.038 157.684 31.115 157.684 31.5772C157.684 32.1422 157.269 32.1679 156.801 32.1679H156.126Z" fill="#03363D"/>
</svg>
