<svg width="115" height="19" viewBox="0 0 115 19" fill="none" xmlns="http://www.w3.org/2000/svg">
<g clip-path="url(#clip0_2_252)">
<path d="M0.575 4.28772C0.191667 4.48259 0 4.7749 0 5.16465V13.739C0 14.1287 0.191667 14.4211 0.575 14.6159L7.66667 18.9031C7.95417 19.098 8.43333 19.098 8.72083 18.9031L15.9083 14.7134C16.2917 14.5185 16.4833 14.2262 16.4833 13.8364V5.16465C16.4833 4.67747 16.2917 4.38516 15.9083 4.28772L8.72083 0.0979793C8.43333 0.000543371 8.05 0.000543371 7.66667 0.0979793L0.575 4.28772Z" fill="#03363D"/>
<path d="M14.4708 7.69727C11.1167 7.69727 8.33749 10.6203 8.33749 14.2255V14.4203H8.04999V14.2255C8.04999 10.6203 5.27082 7.7947 1.91666 7.69727C1.91666 7.89214 1.91666 8.18445 1.91666 8.37932C1.91666 11.205 3.64166 13.5434 5.94166 14.5178C6.70832 14.8101 7.47499 14.9075 8.24166 14.9075C9.00832 14.9075 9.77499 14.8101 10.5417 14.5178C12.9375 13.6409 14.5667 11.205 14.5667 8.37932C14.5667 8.18445 14.5667 7.89214 14.4708 7.69727Z" fill="white"/>
<path d="M8.24166 8.08694C9.35313 8.08694 10.2542 7.17084 10.2542 6.04078C10.2542 4.91072 9.35313 3.99463 8.24166 3.99463C7.13018 3.99463 6.22916 4.91072 6.22916 6.04078C6.22916 7.17084 7.13018 8.08694 8.24166 8.08694Z" fill="white"/>
<path d="M20.9875 4.38486C20.9875 4.18999 21.1792 3.99512 21.3708 3.99512H22.7125C22.9042 3.99512 23.0958 4.18999 23.0958 4.38486V8.5746L26.9292 4.18999C27.025 4.09255 27.1208 3.99512 27.2167 3.99512H28.75C28.9417 3.99512 29.0375 4.09255 29.1333 4.28743C29.1333 4.38486 29.1333 4.4823 29.0375 4.57973L25.1083 9.15922L29.325 14.3233C29.4208 14.5182 29.4208 14.7131 29.2292 14.8105C29.1333 14.8105 29.1333 14.9079 29.0375 14.9079H27.4083C27.3125 14.9079 27.2167 14.9079 27.1208 14.8105L23.0958 9.74383V14.4208C23.0958 14.6156 22.9042 14.8105 22.7125 14.8105H21.3708C21.1792 14.8105 20.9875 14.6156 20.9875 14.4208V4.38486Z" fill="#03363D"/>
<path d="M30.3792 4.38459C30.3792 4.18972 30.5708 4.09229 30.6666 4.09229H31.9125C32.1041 4.09229 32.2 4.28716 32.2 4.38459V8.18459C32.5833 7.89229 33.1583 7.59998 34.0208 7.59998C36.225 7.59998 36.8958 9.15895 36.8958 11.0102V14.6154C36.8958 14.8102 36.7041 14.9077 36.6083 15.0051H35.3625C35.1708 15.0051 35.075 14.8102 35.075 14.6154V11.0102C35.075 10.0359 34.5958 9.45126 33.8291 9.45126C32.9666 9.45126 32.5833 9.93844 32.3916 10.7179V14.6154C32.3916 14.8102 32.2958 15.0051 32.0083 15.0051H30.6666C30.475 15.0051 30.3792 14.8102 30.3792 14.6154V4.38459Z" fill="#03363D"/>
<path d="M40.7292 10.3283C41.2083 10.3283 41.5917 10.4257 42.0708 10.5232C42.0708 9.64625 41.8792 9.15907 41.1125 9.15907C40.4417 9.15907 39.7708 9.25651 39.1 9.45138C38.9083 9.54882 38.7167 9.35394 38.7167 9.15907L38.525 8.37959C38.4292 8.18471 38.525 7.98984 38.7167 7.98984C39.4833 7.79497 40.3458 7.6001 41.1125 7.6001C43.3167 7.6001 43.7958 8.76933 43.7958 10.718V14.6155C43.7958 14.8104 43.6042 14.9078 43.5083 15.0052H43.0292C42.9333 15.0052 42.8375 14.9078 42.7416 14.7129L42.55 14.2257C41.975 14.8104 41.2083 15.1027 40.3458 15.1027C38.9083 15.1027 37.95 14.2257 37.95 12.6668C37.95 11.3027 38.9083 10.3283 40.7292 10.3283ZM40.7292 13.5437C41.3042 13.5437 41.8791 13.0565 41.975 12.7642V11.6924C41.6875 11.595 41.3042 11.4975 40.9208 11.4975C40.1542 11.4975 39.675 11.8873 39.675 12.4719C39.7708 13.1539 40.1542 13.5437 40.7292 13.5437Z" fill="#03363D"/>
<path d="M45.425 8.08706C45.425 7.89219 45.6167 7.79475 45.7125 7.69731H46.2875C46.3833 7.69731 46.575 7.79475 46.575 7.89219L46.8625 8.57424C47.4375 7.89219 48.3 7.50244 49.1625 7.50244C51.3667 7.50244 51.9417 9.06142 51.9417 10.7178V14.4204C51.9417 14.6153 51.75 14.7127 51.6542 14.8101H50.4083C50.2167 14.8101 50.1208 14.6153 50.1208 14.4204V10.7178C50.1208 9.8409 49.7375 9.25629 48.875 9.25629C48.2042 9.25629 47.5333 9.64603 47.3417 10.3281V14.4204C47.3417 14.7127 47.2458 14.8101 46.8625 14.8101H45.7125C45.5208 14.8101 45.425 14.6153 45.425 14.4204V8.08706Z" fill="#03363D"/>
<path d="M55.5833 14.4205L60.2792 3.9949C60.375 3.89746 60.4708 3.89746 60.5667 3.89746H60.7583C60.8542 3.89746 60.95 3.9949 61.0458 4.09233L65.7417 14.518C65.8375 14.6154 65.7417 14.8103 65.6458 14.9077C65.55 14.9077 65.55 14.9077 65.4542 14.9077H64.1125C63.9208 14.9077 63.825 14.8103 63.6333 14.6154L62.8667 12.959H58.3625L57.5958 14.6154C57.5 14.8103 57.3083 14.9077 57.1167 14.9077H55.775C55.5833 14.9077 55.4875 14.8103 55.4875 14.6154C55.4875 14.518 55.5833 14.518 55.5833 14.4205ZM62.1 11.1077L60.5667 7.69746H60.4708L58.9375 11.1077H62.1Z" fill="#03363D"/>
<path d="M69.575 7.6001C70.6292 7.6001 71.4917 8.08728 72.1625 8.76933C72.3542 8.9642 72.2583 9.15907 72.0667 9.25651L71.3958 9.93856C71.2042 10.1334 71.1083 10.036 70.9167 9.84112C70.6292 9.54882 70.15 9.25651 69.4792 9.25651C68.425 9.25651 67.6583 10.1334 67.6583 11.2052C67.6583 12.277 68.425 13.1539 69.4792 13.1539C70.2458 13.1539 70.6292 12.7642 71.0125 12.3745C71.1083 12.277 71.3 12.1796 71.4917 12.277L72.1625 12.8616C72.3542 13.0565 72.45 13.1539 72.2583 13.3488C71.6833 14.3232 70.725 14.8104 69.4792 14.8104C67.4667 14.8104 65.7417 13.2514 65.7417 11.1078C65.8375 9.15907 67.4667 7.6001 69.575 7.6001Z" fill="#03363D"/>
<path d="M76.0916 10.3283C76.5708 10.3283 76.9541 10.4257 77.4333 10.5232C77.4333 9.64625 77.2416 9.15907 76.475 9.15907C75.8041 9.15907 75.1333 9.25651 74.4625 9.45138C74.2708 9.54882 74.0791 9.35394 74.0791 9.15907L73.8875 8.37959C73.7916 8.18471 73.8875 7.98984 74.0791 7.98984C74.8458 7.79497 75.7083 7.6001 76.475 7.6001C78.6791 7.6001 79.1583 8.76933 79.1583 10.718V14.6155C79.1583 14.8104 78.9666 14.9078 78.8708 15.0052H78.3916C78.2958 15.0052 78.2 14.9078 78.1041 14.7129L77.9125 14.2257C77.3375 14.8104 76.5708 15.1027 75.7083 15.1027C74.2708 15.1027 73.3125 14.2257 73.3125 12.6668C73.2166 11.3027 74.2708 10.3283 76.0916 10.3283ZM76.0916 13.5437C76.6666 13.5437 77.2416 13.0565 77.3375 12.7642V11.6924C77.05 11.595 76.6666 11.4975 76.2833 11.4975C75.5166 11.4975 75.0375 11.8873 75.0375 12.4719C75.0375 13.1539 75.4208 13.5437 76.0916 13.5437Z" fill="#03363D"/>
<path d="M83.8541 7.59998C84.4291 7.59998 85.0041 7.69741 85.5792 7.89229V4.38459C85.5792 4.18972 85.7708 4.09229 85.9625 4.09229H87.2083C87.4 4.09229 87.4958 4.28716 87.4958 4.38459V14.5179C87.4958 14.7128 87.3041 14.8102 87.2083 14.9077H86.6333C86.4416 14.9077 86.3458 14.8102 86.25 14.5179L86.0583 13.9333C85.4833 14.6154 84.6208 15.0051 83.7583 15.0051C81.8416 15.0051 80.4041 13.4461 80.4041 11.3025C80.4041 9.15895 81.7458 7.59998 83.8541 7.59998ZM85.5792 9.74357C85.1 9.45126 84.6208 9.35382 84.1416 9.35382C82.9916 9.35382 82.4166 10.3282 82.4166 11.3025C82.4166 12.2769 82.9916 13.2513 84.0458 13.2513C84.9083 13.2513 85.4833 12.6666 85.5792 12.2769V9.74357Z" fill="#03363D"/>
<path d="M92.1916 7.6001C94.0125 7.6001 95.45 8.9642 95.45 10.9129C95.45 11.0104 95.45 11.3027 95.45 11.4001C95.45 11.595 95.2583 11.6924 95.1625 11.6924H90.6583C90.6583 12.5693 91.425 13.3488 92.3833 13.3488C92.9583 13.3488 93.4375 13.1539 93.9166 12.8616C94.1083 12.7642 94.3 12.6668 94.3958 12.8616L94.9708 13.6411C95.0666 13.7386 95.0666 13.9334 94.9708 14.0309C94.9708 14.0309 94.9708 14.0309 94.875 14.0309C94.1083 14.7129 93.2458 15.0052 92.2875 15.0052C90.1791 15.0052 88.7416 13.3488 88.7416 11.3027C88.6458 9.25651 90.0833 7.6001 92.1916 7.6001ZM93.5333 10.4257C93.5333 9.74369 92.9583 9.15907 92.1916 9.15907C91.3291 9.15907 90.7541 9.64625 90.6583 10.4257H93.5333Z" fill="#03363D"/>
<path d="M96.6 8.08706C96.6 7.89219 96.7916 7.79475 96.8875 7.69731H97.4625C97.5583 7.69731 97.75 7.79475 97.75 7.89219L98.0375 8.57424C98.5166 7.89219 99.3791 7.50244 100.146 7.50244C101.2 7.50244 101.679 7.89219 102.254 8.57424C102.542 8.28193 103.212 7.50244 104.554 7.50244C106.758 7.50244 107.333 8.96398 107.333 10.8153V14.5178C107.333 14.7127 107.142 14.9076 106.95 14.9076H105.704C105.512 14.9076 105.417 14.7127 105.417 14.5178V10.8153C105.417 9.93834 105.033 9.35372 104.171 9.35372C103.117 9.35372 102.829 10.1332 102.829 10.1332C102.829 10.1332 102.829 10.523 102.829 10.8153V14.6153C102.829 14.8101 102.637 14.9076 102.542 15.005H101.296C101.104 15.005 101.008 14.9076 100.912 14.7127V11.0101C100.912 10.1332 100.625 9.5486 99.7625 9.5486C98.9 9.5486 98.6125 10.1332 98.4208 10.6204V14.7127C98.4208 14.9076 98.2291 15.005 98.1333 15.1024H96.8875C96.6958 15.1024 96.6 14.9076 96.6 14.7127V8.08706Z" fill="#03363D"/>
<path d="M108.004 8.18444C107.908 7.89214 108.004 7.69727 108.292 7.69727H109.729C109.825 7.69727 110.017 7.7947 110.017 7.89214L111.262 12.1793L112.892 7.89214C112.987 7.69727 113.083 7.69727 113.371 7.69727H114.617C114.808 7.69727 114.904 7.7947 115 7.98957C115 8.08701 115 8.08701 115 8.18444L110.879 18.3178C110.783 18.4152 110.687 18.5127 110.592 18.5127H109.154C108.962 18.5127 108.867 18.4152 108.771 18.2203C108.771 18.1229 108.771 18.1229 108.771 18.0255L110.208 14.4203L108.004 8.18444Z" fill="#03363D"/>
</g>
<defs>
<clipPath id="clip0_2_252">
<rect width="115" height="19" fill="white"/>
</clipPath>
</defs>
</svg>
