<svg width="115" height="33" viewBox="0 0 115 33" fill="none" xmlns="http://www.w3.org/2000/svg">
<g clip-path="url(#clip0_2_237)">
<path d="M7.1 17.1035C6.9 17.1035 6.6 17.1035 6.4 17.1035C4.7 17.4053 3.6 18.9145 3.9 20.6249C4.1 22.2346 5.8 23.6431 7.4 23.7438C7.6 23.7438 7.7 23.7438 7.9 23.7438C9.6 23.4419 10.1 21.631 9.8 19.82C9.4 17.9084 8 17.2041 7.1 17.1035ZM8.8 21.9328C8.6 22.134 8.4 22.2346 8.1 22.2346C7.6 22.2346 7.2 21.8322 7.3 21.3291C7.3 21.0273 7.4 20.7255 7.5 20.4236C7.7 20.0212 7.5 19.6188 7.2 19.4175C7 19.3169 6.7 19.2163 6.5 19.3169C6.3 19.3169 6.1 19.5181 5.9 19.7194C5.8 19.82 5.7 20.0212 5.7 20.2224V20.323C5.6 20.5242 5.5 20.6249 5.4 20.5242C5.3 20.5242 5.3 20.4236 5.3 20.4236C5.2 19.9206 5.4 19.3169 5.8 18.9145C6.1 18.6127 6.6 18.4114 7.1 18.5121C7.6 18.6127 8 18.9145 8.3 19.3169C8.5 19.82 8.5 20.5242 8.2 21.0273C8.2 21.0273 8.2 21.1279 8.1 21.1279C8 21.3291 8 21.5303 8.1 21.7316C8.2 21.8322 8.3 21.9328 8.5 21.9328C8.6 21.9328 8.6 21.9328 8.7 21.9328C8.8 21.9328 8.9 21.9328 8.9 21.9328C8.8 21.7316 8.8 21.8322 8.8 21.9328Z" fill="white"/>
<path d="M29.4 25.253C29.8 24.3476 30 23.3415 30 22.3354C30 21.128 29.3 20.625 28.9 20.625C28.9 20.625 28.8 20.2226 28.7 19.9207C28.6 19.7195 28.6 19.5183 28.5 19.2165C28.9 18.7134 29 18.1098 28.9 17.5061C28.8 17.003 28.6 16.6006 28.3 16.2988C27.7 15.7957 26.9 15.3933 26.1 15.1921C26 15.1921 25.6 15.0915 25.5 14.9909C25.5 14.9909 25.5 13.6829 25.4 13.0793C25.4 12.4756 25.3 11.9726 25.1 11.3689C24.9 10.564 24.5 9.85976 23.9 9.2561C25.3 7.74695 26.2 6.13719 26.2 4.72866C26.2 2.01219 22.9 1.20732 18.8 2.91768L17.9 3.32012L16.3 1.81098C11.7 -2.21341 -2.8 13.8841 1.8 17.8079L2.8 18.7134C2.5 19.4177 2.4 20.2226 2.5 21.0274C2.6 22.1341 3.2 23.2409 4.1 23.9451C4.9 24.75 6 25.1524 7.2 25.1524C9 29.2774 13.1 31.8933 17.9 31.9939C23.2 32.0945 27.6 29.6799 29.4 25.253ZM30.4 20.3232C30.8 20.9268 31.1 21.6311 31 22.3354C31 23.4421 30.7 24.5488 30.3 25.6555C29.4 27.9695 27.7 29.7805 25.6 31.0884C23.4 32.3963 20.9 33 18.4 33C18.2 33 18.1 33 17.9 33C15.4 32.8994 13 32.1951 10.9 30.8872C9 29.6799 7.5 28.0701 6.5 26.0579C5.4 25.8567 4.3 25.3537 3.4 24.5488C2.3 23.6433 1.6 22.3354 1.5 20.9268C1.4 20.2226 1.5 19.5183 1.6 18.9146L1.1 18.5122C0.5 17.9085 0 17.003 0 15.8963C0 14.8902 0.1 13.7835 0.5 12.878C1.5 10.2622 3.7 7.04268 6.4 4.42683C7.7 3.21951 9 2.21341 10.5 1.30793C11.7 0.503049 13.1 0.10061 14.6 0C15.5 0 16.4 0.301829 17.2 0.905488C17.2 0.905488 17.8 1.50915 18.3 2.0122C18.4 2.0122 18.5 1.91159 18.5 1.91159C19.9 1.30793 21.3 1.0061 22.8 0.905488C25.6 0.905488 27.3 2.41463 27.3 4.72866C27.3 6.13719 26.6 7.74695 25.3 9.2561C25.6 9.75915 25.9 10.3628 26.1 10.9665C26.3 11.5701 26.4 12.2744 26.4 12.878C26.4 13.1799 26.4 13.5823 26.4 13.9848C27.3 14.186 28.2 14.689 28.9 15.2927C29.4 15.7957 29.7 16.3994 29.8 17.1037C29.9 17.8079 29.8 18.5122 29.5 19.1159C29.5 19.2165 29.6 19.3171 29.6 19.3171C29.6 19.4177 29.6 19.5183 29.7 19.5183C30 19.9207 30.2 20.122 30.4 20.3232Z" fill="white"/>
<path d="M27.2 19.0152C27.6 18.7134 27.7 18.2103 27.7 17.7073C27.7 17.506 27.6 17.2042 27.4 17.1036C26.9 16.7012 26.3 16.3993 25.6 16.2987C25.3 16.1981 25.1 16.1981 24.9 16.0975C24.5 15.9969 24.3 15.8963 24.3 15.0914C24.3 14.7896 24.2 13.6829 24.2 13.1798C24.2 12.3749 24.1 11.2682 23.4 10.7652C23.2 10.6646 23 10.564 22.8 10.564C22.7 10.564 22.6 10.564 22.5 10.564C22.2 10.6646 21.8 10.8658 21.6 11.067C21 11.6707 20.1 11.9725 19.2 11.8719C18.7 11.8719 18.2 11.7713 17.6 11.7713C17.5 11.7713 17.4 11.7713 17.3 11.7713C15.8 11.7713 14.5 12.9786 14.3 14.4877C14 16.8018 15.6 18.0091 16.1 18.7134C16.2 18.814 16.2 18.9146 16.2 19.0152C16.2 19.1158 16.1 19.2164 16 19.317C14.7 20.8262 14.2 22.939 14.7 24.8506C14.8 25.0518 14.8 25.3536 14.9 25.5548C16.1 28.3719 19.8 29.7804 23.5 28.5731C24 28.3719 24.4 28.1707 24.9 27.9695C25.7 27.567 26.4 27.064 27 26.3597C27.9 25.3536 28.6 24.1463 28.8 22.8384C28.9 22.1341 28.7 21.8323 28.5 21.7316C28.3 21.631 28.2 21.631 28 21.631C27.9 21.0274 27.7 20.5243 27.5 19.9207L27.2 19.0152Z" fill="white"/>
<path d="M21.2 7.94811C21.3 7.94811 21.3 7.8475 21.2 7.8475C20.3 7.44506 19.4 7.14323 18.4 7.14323C18.4 7.14323 18.3 7.14323 18.3 7.04262C18.5 6.8414 18.6 6.64018 18.8 6.53957V6.43896C17.6 6.53957 16.5 6.94201 15.4 7.64628H15.3C15.4 7.34445 15.5 7.04262 15.7 6.74079V6.64018C14.2 7.44506 13 8.55177 11.9 9.75909V9.8597C11.9 9.8597 11.9 9.8597 12 9.8597C13.2 8.95421 14.6 8.35055 16.1 8.04872C17.8 7.64628 19.5 7.64628 21.2 7.94811Z" fill="white"/>
<path d="M16.9 3.82324C16.9 3.82324 15.6 2.31409 15.3 2.21348C12.9 1.60983 7.90001 5.13117 4.70001 9.75922C3.40001 11.6708 1.50001 14.8903 2.40001 16.6007C2.70001 17.0031 3.10001 17.3049 3.50001 17.6068C4.10001 16.8019 5.00001 16.2989 6.00001 16.0976C7.30001 12.4757 9.50001 9.35678 12.4 7.04275C13.8 5.83544 15.3 4.72873 16.9 3.82324Z" fill="white"/>
<path d="M8.70001 21.8324C8.70001 21.8324 8.70001 21.933 8.70001 22.0336C8.60001 22.2348 8.30001 22.4361 8.00001 22.3354C7.50001 22.2348 7.20001 21.8324 7.20001 21.43C7.20001 21.1281 7.30001 20.8263 7.40001 20.5245C7.60001 20.122 7.40001 19.7196 7.10001 19.5184C6.90001 19.4178 6.70001 19.3171 6.40001 19.4178C6.20001 19.4178 6.00001 19.619 5.90001 19.8202C5.80001 19.9208 5.70001 20.122 5.70001 20.3232V20.4239C5.60001 20.6251 5.50001 20.7257 5.40001 20.7257C5.40001 20.7257 5.30001 20.7257 5.30001 20.6251C5.20001 20.0214 5.40001 19.5184 5.80001 19.1159C6.10001 18.8141 6.60001 18.6129 7.10001 18.6129C7.60001 18.7135 8.00001 19.0153 8.20001 19.4178C8.40001 20.0214 8.40001 20.6251 8.10001 21.1281C8.10001 21.1281 8.10001 21.2287 8.00001 21.2287C7.90001 21.43 7.90001 21.6312 8.00001 21.8324C8.10001 21.933 8.20001 22.0336 8.40001 22.0336C8.50001 22.0336 8.50001 22.0336 8.60001 22.0336C8.50001 21.7318 8.60001 21.7318 8.70001 21.8324ZM30 22.3354C30 23.3415 29.7 24.3476 29.4 25.2531C27.6 29.5793 23.3 32.0946 18.1 31.8934C13.3 31.7928 9.20001 29.1769 7.40001 25.0519C6.30001 25.0519 5.20001 24.5489 4.40001 23.8446C3.50001 23.1403 3.00001 22.0336 2.80001 20.9269C2.70001 20.122 2.80001 19.3171 3.10001 18.6129L2.10001 17.7074C-2.49999 13.7836 11.9 -2.31395 16.5 1.71044L18.1 3.21958C18.1 3.21958 18.9 2.81715 19 2.81715C23 1.10678 26.3 1.91166 26.3 4.62812C26.3 6.03666 25.4 7.64641 24 9.15556C24.6 9.75922 25 10.4635 25.2 11.2684C25.4 11.7714 25.4 12.3751 25.5 12.9787C25.5 13.5824 25.6 14.8903 25.6 14.8903C25.6 14.8903 26 14.9909 26.2 15.0915C27 15.2928 27.8 15.6952 28.4 16.1982C28.7 16.5001 29 17.0031 29 17.4056C29.1 18.0092 28.9 18.6129 28.6 19.1159C28.7 19.3171 28.8 19.5184 28.8 19.8202C28.9 20.2226 29 20.5245 29 20.5245C29.3 20.6251 30 21.1281 30 22.3354ZM9.70001 19.9208C9.40001 17.9086 8.00001 17.2043 7.10001 17.1037C6.90001 17.1037 6.60001 17.1037 6.40001 17.1037C4.70001 17.4056 3.80001 18.8141 4.00001 20.7257C4.30001 22.4361 5.70001 23.744 7.40001 23.8446C7.60001 23.8446 7.70001 23.8446 7.90001 23.8446C9.50001 23.6434 9.90001 21.7318 9.70001 19.9208ZM12.5 7.04276C13.9 5.83544 15.4 4.82934 17 3.92385C17 3.92385 15.8 2.41471 15.4 2.3141C13 1.71044 8.00001 5.23178 4.80001 9.75922C3.50001 11.6708 1.60001 14.8903 2.50001 16.6007C2.80001 17.0031 3.20001 17.305 3.60001 17.6068C4.20001 16.8019 5.10001 16.1982 6.10001 15.997C7.30001 12.5763 9.60001 9.35678 12.5 7.04276ZM17.5 23.1403C17.6 23.6434 18 24.1464 18.6 24.247C18.9 24.3476 19.2 24.4482 19.5 24.4482C23.2 25.0519 26.6 22.9391 27.4 22.4361C27.5 22.4361 27.5 22.4361 27.4 22.5367C27.4 22.5367 27.4 22.6373 27.3 22.6373C26.4 23.8446 23.8 25.2531 20.5 25.2531C19.1 25.2531 17.6 24.7501 17.1 23.9452C16.3 22.7379 17.1 20.9269 18.4 21.1281C18.4 21.1281 18.9 21.2287 19 21.2287C21.1 21.43 23.3 21.1281 25.2 20.2226C27.1 19.3171 27.8 18.4117 27.7 17.6068C27.7 17.4056 27.6 17.1037 27.4 17.0031C26.9 16.6007 26.3 16.2989 25.6 16.1982C25.3 16.0976 25.1 16.0976 24.9 15.997C24.5 15.8964 24.3 15.7958 24.3 14.9909C24.3 14.6891 24.2 13.5824 24.2 13.0793C24.2 12.2745 24.1 11.1678 23.4 10.6647C23.2 10.5641 23 10.4635 22.8 10.4635C22.7 10.4635 22.6 10.4635 22.5 10.4635C22.2 10.5641 21.8 10.7653 21.6 10.9665C21 11.5702 20.1 11.872 19.2 11.7714C18.7 11.7714 18.2 11.6708 17.6 11.6708C17.5 11.6708 17.4 11.6708 17.3 11.6708C15.8 11.6708 14.5 12.8781 14.3 14.3873C14 16.7013 15.6 17.9086 16.1 18.5123C16.2 18.6129 16.2 18.7135 16.2 18.8141C16.2 18.9147 16.1 19.0153 16 19.1159C14.7 20.6251 14.2 22.7379 14.7 24.6495C14.8 24.8507 14.8 25.0519 14.9 25.3537C16.1 28.1708 19.8 29.4787 23.5 28.2714C24 28.0702 24.4 27.869 24.9 27.6678C25.7 27.2653 26.4 26.7623 27 26.058C27.9 25.1525 28.6 23.8446 28.8 22.5367C28.9 21.8324 28.7 21.5306 28.5 21.43C28.3 21.3293 28.2 21.3293 28 21.3293C27.9 20.7257 27.7 20.2226 27.5 19.619C26.5 20.4239 25.3 21.0275 24 21.3293C22.5 21.7318 20.9 21.933 19.4 21.8324C18.4 21.7318 17.7 21.43 17.5 22.2348C19 22.7379 20.6 22.9391 22.2 22.7379C22.2 22.7379 22.3 22.7379 22.3 22.8385C22.3 22.8385 22.3 22.9391 22.2 22.9391C22.4 23.2409 20.5 24.0458 17.5 23.1403ZM12.1 9.85983C13.3 8.95434 14.7 8.35068 16.2 8.04885C17.9 7.64641 19.6 7.64641 21.2 8.04885C21.3 8.04885 21.3 7.94824 21.2 7.94824C20.3 7.5458 19.4 7.24398 18.4 7.24398C18.4 7.24398 18.3 7.24398 18.4 7.14337C18.6 6.94215 18.7 6.74093 18.9 6.64032V6.53971C17.7 6.64032 16.6 7.04276 15.6 7.74702H15.5C15.6 7.44519 15.7 7.14337 15.9 6.84154V6.74093C14.4 7.44519 13.1 8.5519 12.1 9.85983C12 9.75922 12 9.85983 12.1 9.85983C12 9.85983 12.1 9.85983 12.1 9.85983ZM21.7 17.6068C21.9 17.7074 22.2 17.7074 22.3 17.5062C22.4 17.305 22.3 17.1037 22 17.0031C21.8 16.9025 21.5 16.9025 21.4 17.1037C21.3 17.305 21.5 17.5062 21.7 17.6068ZM22.5 14.6891C22.6 14.9909 22.7 15.2928 22.9 15.5946C23.1 15.5946 23.3 15.5946 23.5 15.5946C23.6 15.1921 23.6 14.8903 23.5 14.4879C23.4 13.7836 23.2 13.3812 22.7 13.4818C22.4 13.5824 22.4 14.0854 22.5 14.6891ZM23.4 16.2989C23.1 16.1982 22.8 16.3995 22.8 16.7013C22.7 17.0031 22.9 17.305 23.2 17.305C23.5 17.4056 23.8 17.2043 23.8 16.9025V16.8019C23.8 16.5001 23.6 16.2989 23.4 16.2989Z" fill="#03363D"/>
<path d="M16.6 16.1981C16.5 16.1981 16.5 16.1981 16.5 16.0975C16.5 15.9969 16.7 15.7957 16.8 15.6951C17.4 15.2926 18.1 15.192 18.7 15.4939C19 15.5945 19.2 15.7957 19.4 16.0975C19.5 16.1981 19.5 16.2987 19.4 16.2987C19.3 16.3993 19.2 16.2987 18.9 16.1981C18.6 15.9969 18.2 15.9969 17.8 15.9969C17.5 15.9969 17 16.0975 16.6 16.1981ZM19.4 16.8018C19.2 16.5 18.8 16.3993 18.5 16.5C18.2 16.5 18 16.6006 17.8 16.8018C17.7 16.9024 17.6 17.003 17.6 17.1036C17.6 17.1036 17.6 17.1036 17.6 17.2042C17.6 17.2042 17.6 17.2042 17.7 17.2042C17.8 17.2042 17.9 17.2042 18 17.1036C18.4 17.003 18.8 16.9024 19.2 17.003C19.4 17.003 19.5 17.003 19.5 17.003C19.4 16.8018 19.4 16.8018 19.4 16.8018Z" fill="#03363D"/>
<path d="M18.9 16.9024C19 16.5 19 16.0975 18.9 15.5945C18.8 14.8902 18.5 14.5884 18.1 14.5884C17.7 14.689 17.7 15.192 17.8 15.8963C17.9 16.1981 18 16.5 18.2 16.8018C18.5 17.3048 18.7 17.2042 18.9 16.9024Z" fill="#03363D"/>
<path d="M110.4 19.7197C109.6 19.7197 109.1 18.7136 109.1 17.4056C109.1 16.0977 109.7 15.0916 110.4 15.0916C111.3 15.0916 111.7 15.8965 111.7 17.4056C111.7 18.9148 111.4 19.7197 110.4 19.7197ZM111.3 12.2745C110 12.2745 108.9 13.0794 108.5 14.2867C108.3 14.7898 108.3 14.8904 108.1 14.8904C107.9 14.8904 108.1 14.488 108.2 14.0855C108.3 13.5825 108.3 12.9788 108.3 12.4758H105.9V24.2471H109.2V20.5245C109.6 21.3294 110.5 21.9331 111.4 21.9331C113.8 21.9331 115 19.9209 115 17.1038C115 13.9849 113.6 12.2745 111.3 12.2745ZM86.6 12.4758V21.6313H89.9V12.4758C89.4 12.677 88.8 12.8782 88.2 12.7776C87.6 12.8782 87.1 12.7776 86.6 12.4758ZM82.4 12.2745C80.5 12.2745 79.7 14.0855 79.6 14.3873C79.5 14.6892 79.4 14.8904 79.3 14.8904C79.1 14.8904 79.2 14.488 79.3 14.2867C79.6 13.2806 79.8 12.1739 79.8 11.0672C79.8 10.5642 79.8 10.1617 79.7 9.65869H76.8V21.6313H80.1V17.1038C80.1 16.3995 80.4 15.0916 81.2 15.0916C81.9 15.0916 82.1 15.5947 82.1 16.6008V21.6313H85.4V16.802C85.5 14.488 85.1 12.2745 82.4 12.2745ZM70.5 17.1038C70.5 16.2989 71.3 15.4941 72.7 15.4941C73.8 15.4941 74.8 15.7959 75.7 16.3995V13.18C75.7 13.18 74.7 12.2745 72.3 12.2745C69.8 12.2745 67.7 13.7837 67.7 16.9026C67.7 20.0215 69.6 21.8325 72.3 21.8325C73.5 21.8325 74.7 21.43 75.7 20.6252V17.6069C74.8 18.2105 73.8 18.5123 72.7 18.613C71.1 18.7136 70.5 18.0093 70.5 17.1038ZM63.5 9.7593H66.8V21.7319H63.5V9.7593ZM53.2 19.5184C52.4 19.7197 52 19.4178 52 18.9148C52 18.2105 52.7 17.9087 53.8 17.9087C54.3 17.9087 54.7 17.9087 54.7 17.9087C54.5 18.7136 54 19.3172 53.2 19.5184ZM54.1 12.2745C52.6 12.2745 51.1 12.5764 49.7 13.18V15.8965C49.7 15.8965 51.7 14.6892 53.4 14.6892C54.7 14.6892 54.9 15.3934 54.8 15.9971C54.3 15.8965 53.8 15.8965 53.3 15.8965C50.6 15.8965 49.2 17.1038 49.2 19.116C49.2 21.0276 50.7 21.8325 52 21.8325C53.3 21.8325 54.5 21.1282 55 19.9209C55.2 19.5184 55.2 19.2166 55.4 19.2166C55.6 19.2166 55.5 19.4178 55.5 19.8203C55.5 20.4239 55.5 21.0276 55.6 21.5306H58.1V17.0032C58.1 14.3873 57.1 12.2745 54.1 12.2745ZM101.7 12.2745C100.6 12.3752 99.6 13.0794 99.2 14.1861C99 14.5886 99 14.8904 98.8 14.8904C98.6 14.8904 98.7 14.488 98.6 13.9849C98.3 12.8782 97.3 12.1739 96.2 12.2745C94.7 12.2745 94 13.5825 93.7 14.2867C93.5 14.7898 93.5 14.8904 93.3 14.8904C93.1 14.8904 93.3 14.488 93.4 14.0855C93.5 13.5825 93.5 12.9788 93.5 12.4758H91V21.6313H94.3V17.1038C94.3 16.1983 94.7 15.0916 95.3 15.0916C96 15.0916 96.2 15.6953 96.2 16.7014V21.7319H99.5V17.1038C99.5 16.2989 99.8 15.0916 100.5 15.0916C101.3 15.0916 101.4 15.8965 101.4 16.7014V21.7319H104.7V16.2989C104.8 13.8843 103.9 12.2745 101.7 12.2745ZM45.3 12.2745C44.2 12.3752 43.2 13.0794 42.8 14.1861C42.6 14.5886 42.6 14.8904 42.4 14.8904C42.2 14.8904 42.3 14.5886 42.2 13.9849C41.9 12.8782 40.9 12.1739 39.8 12.2745C38.3 12.2745 37.6 13.5825 37.3 14.2867C37.1 14.7898 37.1 14.8904 36.9 14.8904C36.7 14.8904 36.9 14.488 37 14.0855C37.1 13.5825 37.1 12.9788 37.1 12.4758H34.7V21.6313H38V17.1038C38 16.1983 38.4 15.0916 39 15.0916C39.7 15.0916 39.9 15.6953 39.9 16.7014V21.7319H43.2V17.1038C43.2 16.2989 43.5 15.0916 44.2 15.0916C45 15.0916 45.1 15.8965 45.1 16.7014V21.7319H48.4V16.2989C48.4 13.8843 47.5 12.2745 45.3 12.2745ZM86.2 10.9666C86.2 10.2623 87.1 9.65869 88.2 9.65869C89.3 9.65869 90.2 10.2623 90.2 10.9666C90.2 11.6709 89.3 12.2745 88.2 12.2745C87.1 12.2745 86.2 11.6709 86.2 10.9666ZM60.8 12.8782C61.4 12.8782 61.9 12.7776 62.5 12.5764V21.7319H59.2V12.5764L60.8 12.8782ZM58.8 10.9666C58.8 10.2623 59.7 9.65869 60.8 9.65869C61.9 9.65869 62.8 10.2623 62.8 10.9666C62.8 11.6709 61.9 12.2745 60.8 12.2745C59.7 12.2745 58.8 11.6709 58.8 10.9666Z" fill="#03363D"/>
</g>
<defs>
<clipPath id="clip0_2_237">
<rect width="115" height="33" fill="white"/>
</clipPath>
</defs>
</svg>
