<svg width="106" height="17" viewBox="0 0 106 17" fill="none" xmlns="http://www.w3.org/2000/svg">
<path fill-rule="evenodd" clip-rule="evenodd" d="M0.3 16.1953V12.9763C2.1 13.5799 3.7 13.8817 5.1 13.8817C7 13.8817 8 13.3787 8 12.3728C8 11.9704 7.9 11.6686 7.6 11.3669C7.3 11.0651 6.6 10.6627 5.4 10.2604C3.3 9.35503 1.9 8.5503 1.3 7.94675C0.4 7.14201 0 6.1361 0 4.92899C0 3.31953 0.6 2.11243 1.8 1.30769C3 0.402367 4.6 0 6.5 0C7.6 0 9.1 0.201183 11.1 0.60355V3.72189C9.6 3.01775 8.3 2.71598 7 2.71598C5.2 2.71598 4.3 3.21893 4.3 4.22485C4.3 4.62722 4.5 4.92899 4.8 5.13018C5.1 5.33136 5.9 5.73373 7.3 6.33728C9.3 7.2426 10.6 7.94675 11.2 8.65089C12 9.45562 12.4 10.4615 12.4 11.6686C12.4 13.3787 11.6 14.787 10.1 15.6923C8.9 16.3965 7.3 16.7988 5.3 16.7988C3.7 16.7988 2 16.5976 0.3 16.1953ZM15 16.3965V0.301775H19.5V16.497H15V16.3965ZM23.6 16.3965V0.301775H35.2V3.21894H28V6.84024H34.3V9.45562H28V13.2781H35.4V16.3965H23.6ZM38.4 16.3965V0.301775H44.2L48.3 10.6627L52.5 0.301775H58.1V16.497H53.8V5.02959L49.1 16.5976H46.3L41.6 5.02959V16.497H38.4V16.3965ZM62.2 16.3965V0.301775H73.8V3.21894H66.6V6.84024H72.9V9.45562H66.6V13.2781H74V16.3965H62.2ZM76.9 16.3965V0.301775H82.1L87.7 11.0651V0.301775H90.9V16.497H85.8L80.2 5.43195V16.3965H76.9ZM94.1 16.1953V12.9763C95.9 13.5799 97.5 13.8817 98.9 13.8817C100.8 13.8817 101.8 13.3787 101.8 12.3728C101.8 11.9704 101.7 11.6686 101.4 11.3669C101.1 11.0651 100.4 10.6627 99.2 10.2604C97.1 9.35503 95.7 8.65089 95 8.04734C94.2 7.2426 93.7 6.23669 93.7 4.92899C93.7 3.31953 94.3 2.11243 95.5 1.30769C96.7 0.502959 98.3 0.100592 100.2 0.100592C101.3 0.100592 102.7 0.301775 104.4 0.60355L104.8 0.704142V3.82249C103.3 3.21894 101.9 2.91716 100.6 2.91716C98.8 2.91716 97.9 3.42012 97.9 4.42604C97.9 4.8284 98.1 5.13018 98.4 5.33136C98.7 5.53254 99.5 5.93491 100.9 6.53846C102.9 7.44379 104.2 8.14793 104.8 8.85207C105.6 9.65681 106 10.6627 106 11.8698C106 13.5799 105.2 14.9882 103.7 15.8935C102.5 16.5976 100.9 17 98.9 17C97.5 16.7988 95.8 16.5976 94.1 16.1953Z" fill="#03363D"/>
</svg>
