<svg width="182" height="26" viewBox="0 0 182 26" fill="none" xmlns="http://www.w3.org/2000/svg">
<g clip-path="url(#clip0_2_107)">
<path d="M7.28876 13.9L17.5717 3.59995C18.9694 2.19995 21.3654 2.19995 22.7631 3.59995L23.462 4.39995L25.0593 2.79995L24.2606 1.99995C21.8646 -0.400049 18.1707 -0.400049 15.8745 1.99995L5.69141 12.3L7.28876 13.9Z" fill="#03363D"/>
<path d="M20.8662 6.9L19.2689 5.3L8.98594 15.6C7.58825 17 5.19222 17 3.79454 15.6C2.39686 14.2 2.39686 11.8 3.79454 10.4L12.58 1.6L11.0825 0L2.29702 8.8C-0.0990072 11 -0.0990072 14.8 2.29702 17.2C4.69305 19.6 8.28709 19.6 10.6831 17.4C10.6831 17.4 10.6831 17.4 10.8828 17.2L20.8662 6.9ZM31.0494 8.8C28.6533 6.4 24.9595 6.4 22.6633 8.8L12.4801 19.1L14.0775 20.7L24.2606 10.5C25.6583 9.1 28.0543 9.1 29.452 10.5C30.051 11.1 30.5502 12.1 30.5502 13C30.5502 13.9 30.2507 14.9 29.452 15.7L20.6666 24.5L22.2639 26.1L31.0494 17.3C33.4454 14.8 33.4454 11.2 31.0494 8.8Z" fill="#03363D"/>
<path d="M26.0576 12.1L15.7747 22.4C14.377 23.8 11.981 23.8 10.5833 22.4L9.98428 21.6L8.38693 23.2L9.18561 24C11.5816 26.4 15.2755 26.4 17.5717 24L27.7548 13.8L26.0576 12.1Z" fill="#03363D"/>
<path d="M42.0312 15.8C42.2308 16.4 42.5303 16.9 42.9297 17.4C43.5287 17.7 44.2275 18 44.8265 17.9C45.4256 17.9 46.1244 17.7 46.7234 17.4C47.2226 17.1 47.3224 16.5 47.3224 16C47.3224 15.7 47.3224 15.5 47.1227 15.2C46.9231 15 46.8232 14.9 46.6236 14.7C46.4239 14.5 46.1244 14.4 45.8249 14.4L45.0262 14L44.1277 13.7C43.6285 13.5 43.0295 13.4 42.5303 13.1C42.0312 12.9 41.7317 12.6 41.4322 12.3C41.1327 12 40.8332 11.7 40.6335 11.2C40.4338 10.7 40.334 10.3 40.334 9.80005C40.334 9.30005 40.5337 8.70005 40.6335 8.40005C40.8332 7.90005 41.1327 7.60005 41.532 7.30005C42.0312 7.00005 42.4305 6.70005 42.9297 6.50005C43.5287 6.30005 44.2275 6.30005 44.8265 6.30005C46.1244 6.30005 47.2226 6.60005 48.0212 7.20005C48.8199 7.80005 49.3191 8.80005 49.4189 9.70005L47.2226 9.90005C47.0229 9.40005 46.9231 9.00005 46.4239 8.60005C45.9247 8.30005 45.3257 8.10005 44.7267 8.10005C44.1277 8.10005 43.6285 8.30005 43.1294 8.60005C42.8299 8.90005 42.5303 9.40005 42.5303 9.70005C42.5303 10 42.5303 10.2 42.73 10.3C43.0295 10.6 43.2292 10.8 43.329 10.9C43.4289 11 43.8282 11.2 44.1277 11.2C44.4272 11.4 44.7267 11.4 45.0262 11.5L45.9247 11.8C46.5237 12 47.0229 12.1 47.5221 12.4C48.0212 12.6 48.3208 12.9 48.6203 13.2C48.9198 13.5 49.2193 13.8 49.4189 14.1C49.6186 14.6 49.7184 15 49.7184 15.5C49.7184 16.1 49.5188 16.6 49.4189 17.1C49.2193 17.6 48.8199 18 48.5204 18.4C48.0212 18.7 47.6219 19 46.9231 19.2C46.3241 19.4 45.6252 19.5 45.0262 19.5C43.928 19.5 42.6302 19.2 41.7317 18.6C40.8332 18 40.1343 16.9 40.0345 15.8H42.0312ZM58.9032 6.30005C59.8017 6.30005 60.8001 6.50005 61.5987 6.80005C62.3974 7.10005 62.9964 7.60005 63.5954 8.20005C64.1944 8.80005 64.6936 9.60005 64.8933 10.4C65.1928 11.3 65.3925 12.1 65.3925 13.1C65.3925 14 65.1928 15 64.8933 15.9C64.5938 16.7 64.0946 17.5 63.4956 18.1L65.1928 20.1V20.7H62.9964L61.8982 19C61.3991 19.2 60.9997 19.3 60.5006 19.5C60.0014 19.7 59.4024 19.7 58.9032 19.7C58.0047 19.7 57.0064 19.5 56.2077 19.2C55.409 18.9 54.81 18.4 54.211 17.8C53.612 17.2 53.3125 16.5 52.9131 15.8C52.6136 14.9 52.414 13.9 52.414 13.1C52.414 12.2 52.6136 11.2 52.9131 10.4C53.2126 9.60005 53.7118 8.80005 54.211 8.40005C54.81 7.80005 55.5088 7.30005 56.2077 7.00005C57.206 6.50005 58.0047 6.30005 58.9032 6.30005ZM58.9032 8.20005C58.3042 8.20005 57.6054 8.40005 57.206 8.50005C56.8067 8.60005 56.3075 9.10005 55.9082 9.40005C55.6087 9.90005 55.3092 10.3 55.1095 11C54.9098 11.7 54.81 12.3 54.81 12.9C54.81 13.5 55.0097 14.2 55.1095 14.8C55.3092 15.4 55.6087 15.9 55.9082 16.4C56.2077 16.9 56.7069 17.2 57.206 17.3C57.7052 17.6 58.3042 17.6 58.9032 17.6C59.5022 17.6 60.2011 17.4 60.6004 17.3C61.0996 17.1 61.4989 16.7 61.8982 16.4C62.1978 15.9 62.4973 15.5 62.6969 14.8C62.8966 14.1 62.9964 13.5 62.9964 12.9C62.9964 12.3 62.7968 11.6 62.6969 11C62.4973 10.5 62.1978 9.90005 61.8982 9.40005C61.5987 8.90005 61.0996 8.60005 60.6004 8.50005C60.2011 8.40005 59.5022 8.20005 58.9032 8.20005ZM73.9782 18C74.7769 18 75.5756 17.7 76.1746 17.2C76.6738 16.6 76.9733 15.8 76.9733 14.5V6.60005H79.1696V14.5C79.1696 15.3 78.9699 16.1 78.8701 16.9C78.6704 17.5 78.2711 18 77.7719 18.5C77.2728 19 76.8734 19.3 76.1746 19.4C74.7769 19.7 73.1796 19.7 71.7819 19.4C71.1829 19.2 70.6837 18.9 70.1845 18.5C69.6853 18.1 69.3858 17.6 69.0863 16.9C68.7868 16.1 68.7868 15.3 68.7868 14.5V6.60005H70.9832V14.5C70.9832 15.6 71.2827 16.5 71.7819 17.2C72.281 17.6 73.0797 18 73.9782 18ZM81.366 18.9L85.9584 6.60005H89.4526L94.045 18.9V19.5H91.8486L90.3511 15.8H84.8602L83.5623 19.4H81.5656L81.366 18.9ZM85.4592 13.9H89.7521L89.1531 11.9C88.8536 11.1 88.6539 10.5 88.5541 10C88.3544 9.50005 88.1547 9.00005 88.0549 8.70005H87.356L87.0565 9.20005C87.0565 9.40005 86.8569 9.70005 86.757 9.80005C86.6572 9.90005 86.5574 10.3 86.4575 10.6C86.2579 10.9 86.158 11.2 85.9584 11.7L85.4592 13.9ZM106.524 19.5H104.328L100.434 14.5H99.0367V19.5H96.8403V6.60005H101.133C101.732 6.60005 102.431 6.60005 103.03 6.80005C103.629 7.00005 104.128 7.10005 104.627 7.40005C105.526 8.00005 106.225 9.10005 106.225 10.4C106.225 10.9 106.025 11.5 105.925 12C105.726 12.5 105.626 12.8 105.326 13.1C105.027 13.4 104.727 13.7 104.428 13.9C103.829 13.9 103.529 14.1 103.03 14.2L106.824 18.9V19.5H106.524ZM99.0367 12.4H100.934C101.732 12.4 102.331 12.2 102.93 11.9C103.429 11.6 103.729 11 103.729 10.3C103.729 9.60005 103.529 9.00005 102.93 8.70005C102.331 8.40005 101.632 8.20005 100.934 8.20005H99.0367V12.4ZM109.419 6.60005H117.806V8.60005H111.716V12H117.406V13.9H111.716V17.5H118.005V19.5H109.519V6.60005H109.419ZM122.897 15.8C123.097 16.4 123.396 16.9 123.796 17.4C124.395 17.7 125.093 18 125.693 17.9C126.292 17.9 126.99 17.7 127.589 17.4C128.089 17.1 128.188 16.5 128.188 16C128.188 15.7 128.188 15.5 127.989 15.2C127.789 15 127.689 14.9 127.49 14.7C127.29 14.5 126.99 14.4 126.691 14.4L125.792 14.1L124.694 13.8C124.195 13.6 123.596 13.5 123.097 13.2C122.598 13 122.298 12.7 121.999 12.4C121.699 12.1 121.4 11.8 121.2 11.3C120.9 10.4 120.9 9.40005 121.2 8.50005C121.4 8.00005 121.699 7.70005 122.098 7.40005C122.498 7.10005 122.997 6.80005 123.496 6.60005C124.095 6.40005 124.794 6.40005 125.493 6.40005C126.791 6.40005 127.889 6.70005 128.688 7.30005C129.486 7.90005 129.985 8.90005 130.085 9.80005L127.689 10C127.689 9.50005 127.39 9.10005 127.09 8.70005C126.591 8.40005 125.992 8.20005 125.393 8.20005C124.794 8.20005 124.295 8.40005 123.796 8.70005C123.496 9.00005 123.197 9.50005 123.197 9.80005C123.197 10.1 123.197 10.3 123.396 10.4C123.596 10.6 123.696 10.7 123.895 10.9C124.095 11.1 124.395 11.2 124.694 11.2C124.994 11.4 125.293 11.4 125.593 11.5L126.491 11.8C127.09 12 127.589 12.1 128.089 12.4C128.588 12.6 128.887 12.9 129.187 13.2C129.486 13.5 129.786 13.8 129.985 14.1C130.185 14.6 130.285 15 130.285 15.5C130.285 16.1 130.085 16.6 129.985 17.1C129.786 17.6 129.386 18 129.087 18.4C128.588 18.7 128.188 19 127.49 19.2C126.891 19.4 126.192 19.5 125.493 19.5C124.395 19.5 123.097 19.2 122.198 18.6C121.3 18 120.601 16.9 120.601 15.8H122.897ZM133.779 6.60005H138.471C139.27 6.60005 139.869 6.80005 140.668 6.90005C141.167 7.10005 141.766 7.40005 142.065 7.70005C142.365 8.00005 142.664 8.50005 142.864 9.00005C143.064 9.50005 143.164 10.1 143.164 10.6C143.164 11.2 142.964 11.9 142.864 12.3C142.664 12.8 142.365 13.2 141.966 13.6C141.566 14 141.067 14.2 140.368 14.4C139.769 14.6 138.971 14.7 138.371 14.7H136.175V19.7H133.979L133.779 6.60005ZM135.975 12.6H138.172C138.471 12.6 138.97 12.6 139.27 12.4C139.57 12.4 139.869 12.2 140.069 12.1C140.368 11.9 140.568 11.8 140.668 11.5C140.867 11.2 140.867 10.9 140.867 10.6C140.867 10.3 140.867 10 140.668 9.70005C140.468 9.40005 140.368 9.20005 140.069 9.10005C139.769 8.90005 139.57 8.80005 139.27 8.80005C138.97 8.80005 138.471 8.60005 138.172 8.60005H135.975V12.6ZM143.663 18.9L148.255 6.60005H151.749L156.342 18.9V19.5H154.145L152.847 15.7H147.157L145.859 19.3H143.663V18.9ZM147.756 13.9H152.049L151.45 11.9C151.15 11.1 150.951 10.5 150.851 10L150.352 8.70005H149.753L149.553 9.30005C149.553 9.50005 149.353 9.80005 149.253 9.90005C149.054 10.2 149.054 10.4 148.954 10.7C148.754 11 148.654 11.3 148.455 11.8L147.756 13.9ZM169.919 16.1C169.72 16.6 169.42 17 169.121 17.5C168.821 18 168.322 18.3 167.823 18.6C167.323 18.9 166.724 19.2 166.225 19.4C165.626 19.6 164.828 19.7 164.229 19.7C163.33 19.7 162.531 19.5 161.533 19.2C160.734 18.9 160.135 18.4 159.536 17.8C158.937 17.2 158.638 16.5 158.239 15.8C157.939 15 157.739 14.1 157.739 13.1C157.739 12.2 157.939 11.2 158.239 10.4C158.538 9.60005 159.037 8.80005 159.536 8.20005C160.135 7.60005 160.834 7.10005 161.533 6.80005C162.332 6.50005 163.23 6.30005 164.229 6.30005C165.526 6.30005 166.724 6.60005 167.823 7.20005C168.721 7.80005 169.42 8.80005 169.819 9.90005L167.423 10.4C167.124 9.80005 166.625 9.30005 166.125 8.80005C165.526 8.50005 164.828 8.20005 164.129 8.20005C163.53 8.20005 163.031 8.40005 162.432 8.50005C161.932 8.80005 161.533 9.10005 161.134 9.40005C160.834 9.90005 160.535 10.3 160.335 11C160.135 11.6 160.036 12.3 160.036 12.9C160.036 13.5 160.235 14.2 160.335 14.8C160.535 15.3 160.834 15.9 161.134 16.4C161.433 16.9 161.932 17.2 162.432 17.3C162.931 17.6 163.53 17.6 164.129 17.6C164.927 17.6 165.526 17.4 166.125 17C166.625 16.7 167.024 16.1 167.423 15.6L169.919 16.1ZM172.914 6.60005H181.3V8.60005H175.21V12H180.901V13.9H175.21V17.5H181.5V19.5H173.014V6.60005H172.914Z" fill="#03363D"/>
</g>
<defs>
<clipPath id="clip0_2_107">
<rect width="181" height="26" fill="white" transform="translate(0.5)"/>
</clipPath>
</defs>
</svg>
