<svg width="115" height="18" viewBox="0 0 115 18" fill="none" xmlns="http://www.w3.org/2000/svg">
<path d="M0 18H104.538L115 0H0V18Z" fill="#03363D"/>
<path d="M19.843 6.42539C19.4107 6.0809 18.8919 5.99477 18.3731 5.99477C17.7678 5.99477 17.249 6.42539 17.249 6.85602C17.249 7.20051 17.422 7.37277 17.8543 7.4589L18.546 7.63116C19.4107 7.97565 19.9295 8.32016 19.9295 9.09528C19.9295 10.5594 18.6325 11.679 16.6438 11.679C15.6926 11.679 15.0009 11.5068 14.4821 11.0761L15.1738 10.0426C15.6926 10.3871 16.2114 10.5594 16.9896 10.5594C17.8543 10.5594 18.3731 10.1287 18.3731 9.43975C18.3731 9.09525 18.2002 8.92301 17.6814 8.75076L16.9896 8.5785C16.2979 8.40626 15.6926 7.97565 15.6926 7.20054C15.6926 5.82254 16.9896 4.78906 18.546 4.78906C19.4107 4.78906 20.1024 4.96127 20.6212 5.39189L19.843 6.42539Z" fill="white"/>
<path d="M23.4521 7.76499H22.5875L22.0687 10.2626C22.0687 10.4349 22.0687 10.6071 22.0687 10.6932C22.0687 11.0377 22.1551 11.0377 22.501 11.0377C22.5875 11.0377 22.8469 11.0377 23.0198 10.9516V11.6406C22.5875 11.7267 22.3281 11.8128 21.9822 11.8128C21.2905 11.8128 20.8582 11.4683 20.8582 10.9516C20.8582 10.7794 20.8582 10.521 20.9446 10.3487L21.4634 7.67889H20.9446L21.1176 6.81764H21.6364C21.7228 6.30089 21.8093 5.95635 21.9822 5.69798L23.3657 5.35352C23.2792 5.78414 23.0198 6.30089 22.9333 6.81764H24.0574L23.4521 7.76499Z" fill="white"/>
<path d="M26.5338 7.73608C26.1879 7.73608 26.015 7.73608 25.5826 8.1667C25.1503 8.68345 24.9774 9.63084 24.9774 10.2337C24.9774 10.6643 25.0638 10.8365 25.4097 10.8365C25.842 10.8365 26.2744 10.4059 26.3608 10.1476L26.8796 7.82218C26.8796 7.82218 26.7067 7.73608 26.5338 7.73608ZM28.0037 8.33896L27.5714 10.2337C27.4849 10.6643 27.5714 10.9227 27.7443 11.1811L26.7067 12.0423C26.5338 11.9562 26.3608 11.6117 26.2744 11.4394C25.842 11.87 25.5826 12.0423 24.8909 12.0423C23.9398 12.0423 23.5074 11.5256 23.5074 10.4921C23.5074 9.37245 23.9398 8.33897 24.545 7.64997C25.0638 7.13323 25.6691 6.96094 26.5338 6.96094C27.139 6.96094 27.8308 7.04708 28.1766 7.30546C28.2631 7.39158 28.1766 7.90834 28.0037 8.33896Z" fill="white"/>
<path d="M30.5263 6.64502C30.6127 6.81727 30.6127 7.24789 30.6127 7.50626C31.0451 7.07564 31.5639 6.81723 32.2556 6.81723C32.8608 6.81723 33.2067 7.24788 33.2067 7.76463C33.2067 7.93688 33.2067 8.28136 33.1202 8.45361L32.4285 11.8125H31.1315L31.8232 8.53971C31.8232 8.36747 31.9097 8.19522 31.9097 8.10909C31.9097 7.93684 31.8232 7.76463 31.5639 7.76463C31.218 7.76463 30.9586 7.93686 30.5263 8.45361L29.8345 11.7263H28.5375L29.2293 8.36751C29.3157 7.85076 29.3157 7.42014 29.2293 7.07564L30.5263 6.64502Z" fill="white"/>
<path d="M36.2219 6.09092L35.5302 9.70816C35.4437 10.311 35.3572 10.5694 35.3572 10.6555C35.3572 10.8278 35.4437 11 35.5302 11H35.6166L35.7031 11.689C35.5302 11.7751 35.1843 11.7752 34.8384 11.7752C34.1467 11.7752 33.8008 11.3445 33.8008 10.9139C33.8008 10.7417 33.8873 10.3971 33.8873 9.96652L34.579 6.34928C34.6655 5.74641 34.752 5.31583 34.6655 4.88521L36.049 4.45459C36.3948 4.79909 36.3948 5.48805 36.2219 6.09092Z" fill="white"/>
<path d="M38.4371 8.83068C38.9559 8.83068 39.5612 8.65844 39.5612 8.14169C39.5612 7.7972 39.4747 7.62492 39.0424 7.62492C38.5236 7.62492 38.1777 7.9694 38.0048 8.74452C38.1777 8.83065 38.3507 8.83068 38.4371 8.83068ZM40.3394 11.2422C39.7341 11.6728 39.0424 11.845 38.3507 11.845C37.2266 11.845 36.4484 11.2421 36.4484 10.0364C36.4484 9.0029 36.8808 7.96942 37.5725 7.36655C38.0913 6.93593 38.6101 6.76367 39.2153 6.76367C40.1665 6.76367 40.8582 7.19433 40.8582 8.14169C40.8582 9.08906 39.9935 9.77803 38.3507 9.77803C38.0048 9.77803 37.7454 9.69192 37.7454 9.69192C37.7454 9.69192 37.7454 10.0364 37.7454 10.1225C37.7454 10.6393 38.0913 10.9838 38.6101 10.9838C39.0424 10.9838 39.5612 10.8115 39.9935 10.467L40.3394 11.2422Z" fill="white"/>
<path d="M42.8977 6.7749L43.0706 9.617C43.0706 9.96149 43.0706 10.6505 43.0706 10.6505C43.0706 10.6505 43.4165 9.78925 43.6759 9.18638L44.9729 6.86101H46.3563L43.5029 11.8562C42.9841 12.8036 42.6383 13.2342 42.2059 13.4926C41.7736 13.6648 41.3413 13.9232 40.909 13.9232L40.736 13.062C41.0819 12.9758 41.3413 12.8897 41.6007 12.7175C42.033 12.5452 42.1195 12.2869 42.4653 11.7701H42.1195C42.1195 11.4256 42.033 10.8228 42.033 10.3921L41.6007 6.94716L42.8977 6.7749Z" fill="white"/>
<path d="M48.3873 7.80672H49.2519C49.6843 7.80672 49.7707 7.72064 49.9437 7.63451C50.1166 7.54839 50.376 7.20385 50.376 6.94548C50.376 6.51485 50.2031 6.34265 49.6843 6.34265H48.8196L48.3873 7.80672ZM47.8685 10.735H48.7331C49.079 10.735 49.2519 10.6488 49.4249 10.5627C49.7707 10.3905 49.9437 9.95986 49.9437 9.61536C49.9437 9.18474 49.7707 9.01248 49.079 9.01248H48.1279L47.8685 10.735ZM50.1166 5.05078C51.1542 5.05078 51.9324 5.56749 51.9324 6.51485C51.9324 7.11772 51.5001 7.89287 50.5489 8.15124C51.1542 8.23736 51.5865 8.75411 51.5865 9.4431C51.5865 9.87373 51.4136 10.4766 50.9813 10.9933C50.4625 11.5101 49.9437 11.6823 48.9061 11.6823H46.3986L47.8685 5.05078H50.1166Z" fill="white"/>
<path d="M54.4405 6.09092L53.7488 9.70816C53.6623 10.311 53.5759 10.5694 53.5759 10.6555C53.5759 10.8278 53.6623 11 53.7488 11H53.8353L53.9217 11.689C53.7488 11.7751 53.4029 11.7752 53.0571 11.7752C52.3653 11.7752 52.0195 11.3445 52.0195 10.9139C52.0195 10.7417 52.1059 10.3971 52.1059 9.96652L52.7977 6.34928C52.8841 5.74641 52.9706 5.31583 52.8841 4.88521L54.2676 4.45459C54.6135 4.79909 54.6135 5.48805 54.4405 6.09092Z" fill="white"/>
<path d="M57.7093 7.73608C57.3635 7.73608 57.1905 7.73608 56.7582 8.1667C56.3259 8.68345 56.1529 9.63084 56.1529 10.2337C56.1529 10.6643 56.2394 10.8365 56.5853 10.8365C57.0176 10.8365 57.4499 10.4059 57.5364 10.1476L58.0552 7.82218C58.0552 7.82218 57.7958 7.73608 57.7093 7.73608ZM59.1792 8.33896L58.7469 10.2337C58.6604 10.6643 58.7469 10.9227 58.9198 11.1811L57.8823 12.0423C57.7093 11.9562 57.5364 11.6117 57.4499 11.4394C57.1041 11.87 56.7582 12.0423 56.1529 12.0423C55.2018 12.0423 54.7695 11.5256 54.7695 10.4921C54.7695 9.37245 55.2018 8.33897 55.8071 7.64997C56.3259 7.13323 56.9311 6.96094 57.7958 6.96094C58.401 6.96094 59.0928 7.04708 59.4386 7.30546C59.3522 7.39158 59.2657 7.90834 59.1792 8.33896Z" fill="white"/>
<path d="M63.261 8.08549C63.0881 7.91324 62.7422 7.74097 62.5693 7.74097C62.3964 7.74097 62.137 7.82712 61.964 8.08549C61.6182 8.51611 61.2723 9.5496 61.2723 10.2386C61.2723 10.7553 61.4452 10.9276 61.8776 10.9276C62.2234 10.9276 62.5693 10.7554 62.9152 10.4109L63.3475 11.2721C62.8287 11.7027 62.3099 11.875 61.5317 11.875C60.4941 11.875 59.8889 11.2721 59.8889 10.2386C59.8889 8.94673 60.4077 7.91322 61.1858 7.31035C61.6182 6.87973 62.137 6.70752 62.7422 6.70752C63.1746 6.70752 63.6934 6.87973 64.0392 7.31035L63.261 8.08549Z" fill="white"/>
<path d="M69.2411 6.83399L67.2524 8.90095L68.6359 11.743H67.0795L66.0419 8.90095L67.6847 6.83399H69.2411ZM66.6471 4.59473C66.7336 4.76698 66.7336 5.45598 66.4742 6.48947L65.3502 11.8292H64.0532L65.1772 6.40337C65.2637 5.71438 65.3502 5.36985 65.2637 5.02535L66.6471 4.59473Z" fill="white"/>
<path d="M72.7203 6.74483C72.7203 6.40034 72.5474 6.22811 72.2015 6.22811C71.7692 6.22811 71.5098 6.57261 71.5098 7.08935C71.5098 7.2616 71.5963 7.51996 71.9421 7.77834C72.3745 7.51996 72.7203 7.08933 72.7203 6.74483ZM70.5587 10.276C70.5587 10.7066 70.9045 10.965 71.5098 10.965C71.9421 10.965 72.3745 10.8788 72.5474 10.6204L71.2504 9.15636C70.7316 9.32861 70.5587 9.75922 70.5587 10.276ZM74.709 8.46732C74.6226 9.07019 74.2767 9.84532 74.0173 10.3621L75.1414 11.7401H73.4985L73.1527 11.3095C72.7203 11.654 72.1151 11.8262 71.1639 11.8262C69.7805 11.8262 69.0887 11.2233 69.0887 10.276C69.0887 9.41472 69.6075 8.72574 70.6451 8.29512C70.2128 7.86449 70.1263 7.60608 70.1263 7.17546C70.1263 6.14196 71.0775 5.28076 72.4609 5.28076C73.4121 5.28076 74.0173 5.7975 74.0173 6.40037C74.0173 7.08936 73.6714 7.69225 72.5474 8.29512L72.4609 8.38122L73.3256 9.41472C73.4985 9.07023 73.6714 8.55347 73.6714 8.38122H74.7955C74.709 8.38122 74.709 8.46732 74.709 8.46732Z" fill="white"/>
<path d="M77.3242 10.5632H77.9295C78.5348 10.5632 78.9671 10.2187 79.2265 9.87422C79.8318 8.92685 79.9182 7.54886 79.9182 7.29048C79.9182 6.68761 79.7453 6.17088 78.8806 6.17088H78.2754L77.3242 10.5632ZM78.7077 5.05127C79.8318 5.05127 80.5235 5.13735 80.8693 5.6541C81.2152 6.08472 81.3881 6.51536 81.3881 7.29048C81.3881 8.32398 80.9558 9.78809 80.0912 10.7355C79.3994 11.4245 78.7077 11.769 77.2378 11.769H75.5949L77.0648 5.13737L78.7077 5.05127Z" fill="white"/>
<path d="M83.7876 8.83068C84.3064 8.83068 84.9117 8.65844 84.9117 8.14169C84.9117 7.7972 84.8252 7.62492 84.3929 7.62492C83.8741 7.62492 83.5282 7.9694 83.3553 8.74452C83.4417 8.83065 83.6147 8.83068 83.7876 8.83068ZM85.6899 11.2422C85.0846 11.6728 84.3929 11.845 83.7011 11.845C82.5771 11.845 81.7989 11.2421 81.7989 10.0364C81.7989 9.0029 82.2312 7.96942 82.9229 7.36655C83.4417 6.93593 83.9605 6.76367 84.5658 6.76367C85.5169 6.76367 86.2087 7.19433 86.2087 8.14169C86.2087 9.08906 85.344 9.77803 83.7011 9.77803C83.3553 9.77803 83.0959 9.69192 83.0959 9.69192C83.0959 9.69192 83.0959 10.0364 83.0959 10.1225C83.0959 10.6393 83.4417 10.9838 83.9605 10.9838C84.3929 10.9838 84.9117 10.8115 85.344 10.467L85.6899 11.2422Z" fill="white"/>
<path d="M90.1083 8.08549C89.9354 7.91324 89.5895 7.74097 89.4166 7.74097C89.2437 7.74097 88.9843 7.82712 88.8113 8.08549C88.4655 8.51611 88.1196 9.5496 88.1196 10.2386C88.1196 10.7553 88.2925 10.9276 88.7249 10.9276C89.0707 10.9276 89.4166 10.7554 89.7625 10.4109L90.1948 11.2721C89.676 11.7027 89.1572 11.875 88.379 11.875C87.3414 11.875 86.7361 11.2721 86.7361 10.2386C86.7361 8.94673 87.2549 7.91322 88.0331 7.31035C88.4655 6.87973 88.9843 6.70752 89.5895 6.70752C90.0219 6.70752 90.5407 6.87973 90.8865 7.31035L90.1083 8.08549Z" fill="white"/>
<path d="M96.001 6.83399L94.0123 8.90095L95.3958 11.743H93.8394L92.8018 8.90095L94.4446 6.83399H96.001ZM93.4935 4.59473C93.58 4.76698 93.58 5.45598 93.3206 6.48947L92.1965 11.8292H90.8995L92.0236 6.40337C92.1101 5.71438 92.1965 5.36985 92.1101 5.02535L93.4935 4.59473Z" fill="white"/>
<path d="M97.7638 8.83068C98.2826 8.83068 98.8879 8.65844 98.8879 8.14169C98.8879 7.7972 98.8014 7.62492 98.3691 7.62492C97.8503 7.62492 97.5044 7.9694 97.3315 8.74452C97.5044 8.83065 97.6774 8.83068 97.7638 8.83068ZM99.7525 11.2422C99.1473 11.6728 98.4555 11.845 97.7638 11.845C96.6398 11.845 95.8616 11.2421 95.8616 10.0364C95.8616 9.0029 96.2939 7.96942 96.9856 7.36655C97.5044 6.93593 98.0232 6.76367 98.6285 6.76367C99.5796 6.76367 100.271 7.19433 100.271 8.14169C100.271 9.08906 99.4067 9.77803 97.7638 9.77803C97.418 9.77803 97.1586 9.69192 97.1586 9.69192C97.1586 9.69192 97.1586 10.0364 97.1586 10.1225C97.1586 10.6393 97.5044 10.9838 98.0232 10.9838C98.4555 10.9838 98.9743 10.8115 99.4067 10.467L99.7525 11.2422Z" fill="white"/>
<path d="M102.552 6.64502C102.638 6.81727 102.638 7.16177 102.638 7.50626C103.071 7.07564 103.589 6.81723 104.022 6.81723C104.195 6.81723 104.368 6.81726 104.454 6.90338L103.935 8.02299C103.849 7.93686 103.762 7.93689 103.503 7.93689C103.33 7.93689 102.984 8.02297 102.552 8.53971L101.86 11.8125H100.563L101.255 8.53971C101.341 7.93684 101.341 7.50624 101.255 7.16175L102.552 6.64502Z" fill="white"/>
</svg>
