<svg width="91" height="25" viewBox="0 0 91 25" fill="none" xmlns="http://www.w3.org/2000/svg">
<g clip-path="url(#clip0_2_190)">
<path d="M6.98699 20.6646H18.087C18.187 20.6646 18.187 20.7638 18.087 20.7638C16.887 21.359 14.987 23.0455 14.987 23.0455C13.787 24.236 12.787 25.0296 10.687 25.0296H0.0869934C-0.0130066 25.0296 -0.0130066 24.9304 0.0869934 24.9304C1.28699 24.236 2.98699 22.5495 2.98699 22.5495C3.68699 21.7558 5.18699 20.6646 6.98699 20.6646ZM79.787 20.6646H90.887C90.987 20.6646 90.987 20.7638 90.887 20.7638C89.587 21.359 87.887 23.0455 87.887 23.0455C86.587 24.236 85.587 25.0296 83.587 25.0296H72.987C72.887 25.0296 72.887 24.9304 72.987 24.9304C74.187 24.236 75.887 22.5495 75.887 22.5495C76.487 21.7558 77.987 20.6646 79.787 20.6646ZM25.187 20.6646H36.287C36.387 20.6646 36.387 20.7638 36.287 20.7638C35.087 21.359 33.287 23.0455 33.287 23.0455C32.087 24.236 31.087 25.0296 28.987 25.0296H18.287C18.187 25.0296 18.187 24.9304 18.187 24.9304C19.387 24.236 21.087 22.5495 21.087 22.5495C21.887 21.7558 23.387 20.6646 25.187 20.6646ZM43.387 20.6646H54.487C54.587 20.6646 54.587 20.7638 54.487 20.7638C53.287 21.359 51.487 23.0455 51.487 23.0455C50.287 24.236 49.287 25.0296 47.187 25.0296H36.487C36.387 25.0296 36.387 24.9304 36.387 24.9304C37.587 24.236 39.287 22.5495 39.287 22.5495C40.087 21.7558 41.587 20.6646 43.387 20.6646ZM61.587 20.6646H72.687C72.787 20.6646 72.787 20.7638 72.587 20.7638C71.387 21.359 69.587 23.0455 69.587 23.0455C68.387 24.236 67.387 25.0296 65.287 25.0296H54.687C54.587 25.0296 54.587 24.9304 54.687 24.9304C55.887 24.236 57.587 22.5495 57.587 22.5495C58.287 21.7558 59.787 20.6646 61.587 20.6646Z" fill="#03363D"/>
<path d="M64.587 0.0297852C57.587 0.0297852 52.887 3.50201 52.887 8.75994C52.887 13.5218 57.187 16.7957 63.487 16.7957C65.587 16.7957 67.387 16.498 69.487 16.002V11.9345C67.987 13.5218 66.187 14.1171 64.287 14.1171C60.587 14.1171 57.887 11.7361 57.887 8.36312C57.987 4.9901 60.687 2.50994 64.387 2.50994C66.387 2.50994 67.987 3.20439 69.287 4.49407V0.426611C67.987 0.228198 66.287 0.0297852 64.587 0.0297852ZM12.387 2.90677C14.987 2.90677 18.087 3.4028 19.387 4.49407V0.625023H0.987V4.49407C2.287 3.50201 5.087 3.00598 8.087 3.00598V13.4226C8.087 15.0099 7.987 15.4068 7.287 16.2004H13.187C12.487 15.4068 12.387 15.0099 12.387 13.4226V2.90677ZM31.187 6.67661C30.187 7.07344 28.287 7.17264 27.287 7.17264H25.687V2.90677H27.787C29.687 2.90677 32.787 3.30359 34.087 4.29566V0.625023H20.587C21.287 1.31947 21.387 1.8155 21.387 3.4028V13.4226C21.387 15.0099 21.287 15.4068 20.687 16.2004H34.887V12.4306C32.887 13.8195 29.187 13.8195 27.687 13.8195H25.587V9.45439H27.087C28.087 9.45439 29.987 9.55359 31.087 9.95042L31.187 6.67661ZM51.087 1.02185C48.887 0.327404 46.187 0.0297852 43.987 0.0297852C40.087 0.0297852 36.287 1.22026 36.287 5.18851C36.287 12.0338 47.987 8.36312 47.987 12.629C47.987 14.0179 45.887 14.6131 44.287 14.6131C41.387 14.6131 39.287 14.1171 36.587 12.5298V16.002C38.587 16.6965 41.187 16.9941 44.087 16.9941C48.087 16.9941 51.887 15.9028 51.887 11.8353C51.887 4.69248 40.287 7.86709 40.287 4.39486C40.287 3.00598 42.187 2.41074 43.787 2.41074C46.487 2.41074 49.487 3.20439 51.087 4.79169V1.02185ZM80.987 0.228198C74.687 0.228198 70.287 3.70042 70.287 8.56153C70.287 13.3234 74.287 16.5972 80.187 16.5972C86.587 16.5972 90.887 13.3234 90.887 8.26391C90.887 3.50201 86.887 0.228198 80.987 0.228198ZM80.487 14.2163C77.187 14.2163 74.987 11.6369 74.987 8.46232C74.987 5.28772 77.187 2.70836 80.487 2.70836C83.787 2.70836 85.987 5.28772 85.987 8.46232C85.987 11.6369 83.887 14.2163 80.487 14.2163Z" fill="#03363D"/>
</g>
<defs>
<clipPath id="clip0_2_190">
<rect width="91" height="25" fill="white"/>
</clipPath>
</defs>
</svg>
