<svg width="80" height="28" viewBox="0 0 80 28" fill="none" xmlns="http://www.w3.org/2000/svg">
<path d="M10.9 24.2734C14.7 24.2734 17.6 21.3525 17.6 17.0216V0H21.7V27.4964H17.6V24.9784C15.8 26.8921 13.2 28 10.4 28C4.5 28 0 23.6691 0 17.223V0H4.1V16.9209C4.1 21.3525 7.1 24.2734 10.9 24.2734ZM24.7 0H28.6V9.97122C30.4 8.05755 33 6.94964 35.7 6.94964C41.6 6.94964 46.1 11.5827 46.1 17.4245C46.1 23.1655 41.5 27.7986 35.7 27.7986C33 27.7986 30.5 26.6906 28.6 24.777V27.295H24.7V0ZM35.4 24.4748C39.1 24.4748 42.2 21.3525 42.2 17.5252C42.2 13.5971 39.1 10.5755 35.4 10.5755C31.7 10.4748 28.6 13.5971 28.6 17.4245C28.6 21.2518 31.6 24.4748 35.4 24.4748ZM57.9 7.05036C63.6 7.05036 67.8 11.482 67.8 17.4245V18.7338H51.6C52.1 22.0576 54.9 24.3741 58.2 24.3741C60.5 24.3741 62.4 23.3669 63.9 21.4532L66.8 23.5683C64.8 26.2878 61.8 27.7986 58.2 27.7986C52.2 27.7986 47.7 23.3669 47.7 17.4245C47.7 11.7842 52 7.05036 57.9 7.05036ZM51.7 15.6115H63.8C63.1 12.4892 60.7 10.5755 57.7 10.5755C54.7 10.5755 52.4 12.4892 51.7 15.6115ZM78.4 10.9784C75.8 10.9784 74 12.9928 74 16.0144V27.3957H70V7.45324H73.9V9.8705C74.9 8.25899 76.5 7.2518 78.7 7.2518H80V11.0791L78.4 10.9784Z" fill="#03363D"/>
</svg>
